<?xml version="1.0" encoding="utf-8"?>
<!-- Generator: Adobe Illustrator 24.0.1, SVG Export Plug-In . SVG Version: 6.00 Build 0)  -->
<svg version="1.1" id="Layer_1" xmlns="http://www.w3.org/2000/svg" xmlns:xlink="http://www.w3.org/1999/xlink" x="0px" y="0px"
	 viewBox="0 0 512 512" style="enable-background:new 0 0 512 512;fill:#FFFFFF;" xml:space="preserve">
<g transform="translate(1 1)">
	<g>
		<g>
			<path d="M153.3,220.4c2.7,0.5,4.9,0.5,7.8,0.5c33.3,0,59.7-26.5,59.7-59.7c0-3.4,0-6,0-10.2c0-1.6-0.7-3.2-1.8-4.3
				c-6.4-26.1-29.7-45.1-58-45.1c-33.3,0-59.7,26.5-59.7,59.7C101.4,191.8,123.8,216.6,153.3,220.4z M193.5,133
				c3.8,4.3,6.7,9.5,8.4,15.2c-23,11.5-42,30.1-53.4,53.8c-5.8-1.7-11-4.7-15.5-8.5C146.7,167.1,167.1,146.7,193.5,133z
				 M190.2,192.6c-6.3,5.8-14.4,9.6-23.1,10.4c8.5-15.2,21.2-28,36.4-36.5c-1.2,9.8-5.5,18.4-12,24.9c-0.2,0.2-0.4,0.4-0.6,0.6
				C190.6,192.2,190.4,192.4,190.2,192.6z M161.1,118.5c6.2,0,12,1.3,17.2,3.5c-23.4,13.5-42.9,32.9-56.4,56.4
				c-2.3-5.2-3.5-11-3.5-17.2C118.5,137.2,137.2,118.5,161.1,118.5z"/>
			<path d="M348.9,101.4c-30.6,0-55.5,22.4-59.2,51.9c-0.5,2.7-0.5,4.9-0.5,7.8c0,33.3,26.5,59.7,59.7,59.7c3.4,0,6,0,10.2,0
				c1.6,0,3.2-0.7,4.3-1.8c26.1-6.4,45.1-29.7,45.1-58C408.6,127.9,382.1,101.4,348.9,101.4z M311.3,181.6
				c-2.4-4.6-4.1-9.7-4.7-15.1c15.2,9.4,27.9,22.1,36.4,36.5C329.4,201.1,317.7,193.1,311.3,181.6z M361.8,201.9
				c-11.5-23-30.1-42-53.8-53.4c1.7-5.8,4.7-11,8.5-15.5c26.4,13.6,46.8,34.1,60.4,60.4C372.6,197.2,367.5,200.1,361.8,201.9z
				 M388,178.3c-13.5-23.4-32.9-42.9-56.4-56.4c5.2-2.3,11-3.5,17.2-3.5c23.9,0,42.7,18.8,42.7,42.7
				C391.5,167.3,390.3,173.1,388,178.3z"/>
			<path d="M356.4,289.6c-2.8-0.5-5.5-0.5-7.6-0.5c-33.3,0-59.7,26.5-59.7,59.7c0,3.4,0,6,0.9,10.2c0,0.7,0.2,1.4,0.4,2.1
				c5.6,27.2,29.4,47.4,58.5,47.4c33.3,0,59.7-26.5,59.7-59.7C408.6,318.2,386.1,293.3,356.4,289.6z M316.5,377
				c-3.8-4.3-6.7-9.5-8.4-15.2c23-11.5,42-30.1,53.3-53.7c5.6,1.7,10.7,4.8,14.7,9.2C363.4,342.9,342.1,364.2,316.5,377z
				 M328.4,311.3c4.6-2.4,9.7-4.1,15.1-4.7c-9.4,15.2-22.1,27.9-36.5,36.4C308.9,329.4,316.9,317.7,328.4,311.3z M348.9,391.5
				c-6.2,0-12-1.3-17.2-3.5c23.4-13.5,42.9-32.9,56.4-56.4c2.3,5.2,3.5,11,3.5,17.2C391.5,372.8,372.8,391.5,348.9,391.5z"/>
			<path d="M255,220.9c-18.8,0-34.1,15.4-34.1,34.1s15.4,34.1,34.1,34.1s34.1-15.4,34.1-34.1S273.8,220.9,255,220.9z M255,272.1
				c-9.4,0-17.1-7.7-17.1-17.1s7.7-17.1,17.1-17.1c9.4,0,17.1,7.7,17.1,17.1S264.4,272.1,255,272.1z"/>
			<path d="M161.1,289.1c-2.6,0-6,0-10.2,0.9c-0.7,0-1.4,0.2-2.1,0.4c-27.2,5.6-47.4,29.4-47.4,58.5c0,33.3,26.5,59.7,59.7,59.7
				c30.6,0,55.5-22.4,59.2-51.9c0.5-2.7,0.5-4.9,0.5-7.8C220.9,315.6,194.4,289.1,161.1,289.1z M202.6,342.7
				c-15.1-8.5-27.7-21.1-36.2-36.2c9.6,1.1,18.1,5.3,24.5,11.6C197.3,324.6,201.5,333.1,202.6,342.7z M147.8,308.3
				c11.3,22.9,29.6,42,53,53.5c-1.7,5.3-4.4,10.2-8.1,14.4c-25.6-12.8-46.9-34.1-59.7-59.6C137.3,312.9,142.3,310,147.8,308.3z
				 M118.5,348.9c0-6.2,1.3-12,3.5-17.2c13.5,23.4,32.9,42.9,56.4,56.4c-5.2,2.3-11,3.5-17.2,3.5
				C137.2,391.5,118.5,372.8,118.5,348.9z"/>
		</g>
	</g>
</g>
</svg>
