<svg height="512pt" viewBox="-71 0 512 512" width="512pt" xmlns="http://www.w3.org/2000/svg"><path d="m370.757812 326.621094c0 102.382812-82.996093 185.378906-185.378906 185.378906-102.382812 0-185.378906-82.996094-185.378906-185.378906 0-1.855469 0-3.707032.0898438-5.5625-.0898438-.195313-.0898438-.421875 0-.617188 2.0312502-61.957031 34.9375002-118.785156 87.6562502-151.394531 3.179687-2.027344 6.445312-3.882813 9.796875-5.738281h175.671875c3.351562 1.855468 6.621094 3.710937 9.796875 5.738281 54.59375 33.753906 87.800781 93.386719 87.746093 157.574219zm0 0" fill="#c03a2b"/><path d="m351.957031 318.324219c.140625 96.734375-77.839843 175.441406-174.574219 176.191406-96.734374.753906-175.929687-76.730469-177.2929682-173.457031-.0898438-.195313-.0898438-.421875 0-.617188 2.0312502-61.957031 34.9375002-118.785156 87.6562502-151.394531 3.179687-2.027344 6.445312-3.882813 9.796875-5.738281h161.8125c3.175781 1.765625 6.265625 3.53125 9.355469 5.476562 51.78125 32.058594 83.277343 88.636719 83.246093 149.539063zm0 0" fill="#e64c3c"/><path d="m355.308594 140.003906c-28.601563 2.453125-56.46875 10.363282-82.09375 23.304688 3.351562 1.855468 6.621094 3.710937 9.796875 5.738281 2.738281 7.503906 15.273437 45.550781-.527344 69.296875 0 0-61.792969 8.828125-97.105469-61.792969-35.308594 70.621094-97.101562 61.792969-97.101562 61.792969-15.804688-23.746094-3.269532-61.792969-.53125-69.296875 3.179687-2.027344 6.445312-3.882813 9.796875-5.738281-25.621094-12.941406-53.492188-20.851563-82.09375-23.304688-3.691407-.246094-6.832031-2.765625-7.878907-6.3125-1.042968-3.546875.234376-7.367187 3.199219-9.574218 26.21875-19.597657 75.828125-45.640626 130.296875-17.746094l.175782-.441406s-8.828126-70.621094 44.136718-105.929688c52.964844 35.308594 44.136719 105.929688 44.136719 105.929688l.179687.441406c54.464844-27.894532 104.074219-1.851563 130.292969 17.746094 2.964844 2.207031 4.242188 6.027343 3.199219 9.574218s-4.1875 6.066406-7.878906 6.3125zm0 0" fill="#24ae5f"/><g fill="#fb7b76"><path d="m35.308594 335.449219c-4.875 0-8.824219-3.953125-8.824219-8.828125 0-55.003906 18.351563-83.175782 19.136719-84.347656 1.742187-2.628907 4.757812-4.128907 7.90625-3.929688 3.148437.195312 5.953125 2.054688 7.359375 4.878906 1.402343 2.824219 1.195312 6.183594-.550781 8.8125-.175782.265625-16.199219 25.425782-16.199219 74.585938 0 4.875-3.949219 8.828125-8.828125 8.828125zm0 0"/><path d="m35.308594 370.757812c-2.339844-.011718-4.585938-.929687-6.265625-2.558593-1.617188-1.691407-2.53125-3.929688-2.558594-6.269531.011719-1.152344.253906-2.292969.703125-3.351563.449219-1.070313 1.078125-2.054687 1.855469-2.914063 2.105469-2.035156 5.066406-2.921874 7.945312-2.382812.585938.082031 1.15625.261719 1.683594.527344.5625.195312 1.097656.460937 1.589844.796875l1.324219 1.058593c3.414062 3.480469 3.414062 9.054688 0 12.535157-.421876.378906-.863282.730469-1.324219 1.058593-.492188.332032-1.027344.601563-1.589844.792969-.527344.269531-1.097656.449219-1.683594.53125-.554687.101563-1.113281.164063-1.679687.175781zm0 0"/><path d="m317.792969 406.070312c-3.246094-.003906-6.230469-1.789062-7.769531-4.648437-1.539063-2.859375-1.382813-6.335937.40625-9.042969.167968-.265625 16.191406-25.425781 16.191406-74.585937 0-4.875 3.953125-8.828125 8.828125-8.828125s8.828125 3.953125 8.828125 8.828125c0 55.003906-18.355469 83.171875-19.140625 84.347656-1.636719 2.453125-4.394531 3.929687-7.34375 3.929687zm0 0"/><path d="m335.449219 291.308594c-.59375-.011719-1.183594-.074219-1.765625-.175782-.554688-.09375-1.089844-.273437-1.589844-.527343-.566406-.195313-1.101562-.464844-1.597656-.796875l-1.316406-1.058594c-1.613282-1.691406-2.527344-3.929688-2.558594-6.265625-.03125-1.160156.210937-2.308594.707031-3.355469.425781-1.082031 1.054687-2.070312 1.851563-2.914062l1.316406-1.058594c.496094-.332031 1.03125-.601562 1.597656-.792969.5-.257812 1.035156-.433593 1.589844-.53125 1.128906-.265625 2.304687-.265625 3.433594 0 .585937.082031 1.15625.261719 1.6875.53125.558593.191407 1.09375.460938 1.585937.792969l1.324219 1.058594c3.414062 3.480468 3.414062 9.054687 0 12.535156l-1.324219 1.058594c-.492187.332031-1.027344.601562-1.585937.796875-.53125.265625-1.101563.445312-1.6875.527343-.550782.105469-1.109376.164063-1.667969.175782zm0 0"/></g><path d="m150.070312 300.136719c0 14.628906-11.859374 26.484375-26.484374 26.484375s-26.484376-11.855469-26.484376-26.484375c0-14.625 11.859376-26.480469 26.484376-26.480469s26.484374 11.855469 26.484374 26.480469zm0 0" fill="#2c2f38"/><path d="m132.414062 300.136719c0 4.875-3.953124 8.828125-8.828124 8.828125s-8.828126-3.953125-8.828126-8.828125 3.953126-8.828125 8.828126-8.828125 8.828124 3.953125 8.828124 8.828125zm0 0" fill="#fff"/><path d="m273.65625 300.136719c0 14.628906-11.859375 26.484375-26.484375 26.484375s-26.480469-11.855469-26.480469-26.484375c0-14.625 11.855469-26.480469 26.480469-26.480469s26.484375 11.855469 26.484375 26.480469zm0 0" fill="#2c2f38"/><path d="m256 300.136719c0 4.875-3.953125 8.828125-8.828125 8.828125s-8.828125-3.953125-8.828125-8.828125 3.953125-8.828125 8.828125-8.828125 8.828125 3.953125 8.828125 8.828125zm0 0" fill="#fff"/><path d="m185.378906 150.070312c-4.261718-.003906-7.910156-3.050781-8.675781-7.238281-2.878906-1.050781-5.917969-1.585937-8.980469-1.589843-4.875 0-8.824218-3.953126-8.824218-8.828126s3.949218-8.828124 8.824218-8.828124c12.21875 0 26.484375 4.625 26.484375 17.65625 0 4.875-3.953125 8.828124-8.828125 8.828124zm0 0" fill="#4c8056"/><path d="m185.378906 150.070312c-4.875 0-8.828125-3.953124-8.828125-8.828124 0-13.03125 14.265625-17.65625 26.484375-17.65625 4.875 0 8.828125 3.953124 8.828125 8.828124s-3.953125 8.828126-8.828125 8.828126c-3.070312.003906-6.113281.542968-8.996094 1.589843-.765624 4.183594-4.40625 7.226563-8.660156 7.238281zm0 0" fill="#4c8056"/><path d="m194.207031 485.515625h-17.65625c-4.875 0-8.828125-3.949219-8.828125-8.824219 0-4.878906 3.953125-8.828125 8.828125-8.828125h17.65625c4.875 0 8.828125 3.949219 8.828125 8.828125 0 4.875-3.953125 8.824219-8.828125 8.824219zm0 0" fill="#802d40"/><path d="m238.34375 353.101562c4.875 0 8.828125 3.953126 8.828125 8.828126v17.65625c0 34.128906-27.664063 61.792968-61.792969 61.792968s-61.792968-27.664062-61.792968-61.792968v-17.65625c0-4.875 3.953124-8.828126 8.828124-8.828126zm0 0" fill="#2c2f38"/><path d="m241.964844 404.390625c-9.855469 22.460937-32.058594 36.964844-56.585938 36.964844-24.523437 0-46.730468-14.503907-56.585937-36.964844 16.742187-11.078125 36.523437-16.664063 56.585937-15.976563 20.066406-.6875 39.84375 4.898438 56.585938 15.976563zm0 0" fill="#c03a2b"/></svg>